<svg width="54" height="50" viewBox="0 0 54 50" fill="none" xmlns="http://www.w3.org/2000/svg">
<path d="M14.4297 40.764L0.633789 48.2907L27.0128 0.519531L29.4385 4.97408L23.5259 15.7264L25.042 20.4882L14.4297 40.764Z" fill="#3D506D"></path>
<path d="M15.9457 41.6857L2.14982 49.5195H52.6338L37.9282 41.6857H15.9457Z" fill="#3D506D"></path>
<path d="M37.9282 39.3816L52.6338 47.3691L30.4997 6.81734L26.1032 15.7264L37.9282 39.3816Z" fill="#3D506D"></path>
<path d="M14.4297 40.764L0.633789 48.2907L27.0128 0.519531L29.4385 4.97408L23.5259 15.7264L25.042 20.4882L14.4297 40.764Z" stroke="#56B3EB" stroke-width="0.5"></path>
<path d="M15.9457 41.6857L2.14982 49.5195H52.6338L37.9282 41.6857H15.9457Z" stroke="#56B3EB" stroke-width="0.5"></path>
<path d="M37.9282 39.3816L52.6338 47.3691L30.4997 6.81734L26.1032 15.7264L37.9282 39.3816Z" stroke="#56B3EB" stroke-width="0.5"></path>
</svg>