<svg width="64" height="64" viewBox="0 0 64 64" fill="none" xmlns="http://www.w3.org/2000/svg">
<rect x="0.25" y="0.25" width="63.5" height="63.5" rx="31.75" fill="#F2F6FB"></rect>
<rect x="0.25" y="0.25" width="63.5" height="63.5" rx="31.75" stroke="#3D506D" stroke-width="0.5"></rect>
<g clip-path="url(#clip0_1_3797)">
<path d="M43.8869 26.0604L43.5043 26.9408C43.4445 27.0842 43.3436 27.2067 43.2143 27.2928C43.085 27.379 42.9332 27.4249 42.7778 27.4249C42.6225 27.4249 42.4706 27.379 42.3414 27.2928C42.2121 27.2067 42.1112 27.0842 42.0514 26.9408L41.6687 26.0604C40.9959 24.5028 39.7638 23.254 38.2154 22.5604L37.0347 22.0331C36.8915 21.9672 36.7701 21.8616 36.6851 21.7288C36.6 21.5961 36.5548 21.4417 36.5548 21.2841C36.5548 21.1264 36.6 20.972 36.6851 20.8393C36.7701 20.7065 36.8915 20.6009 37.0347 20.5351L38.1501 20.0388C39.7373 19.3254 40.9906 18.0304 41.6516 16.4206L42.0452 15.4702C42.103 15.3229 42.2038 15.1965 42.3345 15.1074C42.4652 15.0184 42.6197 14.9707 42.7778 14.9707C42.936 14.9707 43.0905 15.0184 43.2212 15.1074C43.3519 15.1965 43.4527 15.3229 43.5105 15.4702L43.9041 16.4191C44.5644 18.0292 45.8171 19.3247 47.4041 20.0388L48.5209 20.5366C48.6637 20.6027 48.7847 20.7083 48.8694 20.8408C48.9541 20.9734 48.9992 21.1275 48.9992 21.2848C48.9992 21.4422 48.9541 21.5962 48.8694 21.7288C48.7847 21.8614 48.6637 21.967 48.5209 22.0331L47.3387 22.5588C45.7907 23.2532 44.5591 24.5025 43.8869 26.0604ZM27.2223 18.0835H33.4445V21.1946H27.2223C24.7469 21.1946 22.373 22.1779 20.6226 23.9283C18.8723 25.6786 17.8889 28.0526 17.8889 30.5279C17.8889 36.1435 21.7187 39.8084 30.3334 43.719V39.8613H33.4445C35.9199 39.8613 38.2938 38.8779 40.0442 37.1276C41.7945 35.3773 42.7778 33.0033 42.7778 30.5279H45.8889C45.8889 33.8284 44.5778 36.9937 42.2441 39.3275C39.9103 41.6613 36.745 42.9724 33.4445 42.9724V48.4168C25.6667 45.3057 14.7778 40.6391 14.7778 30.5279C14.7778 27.2275 16.0889 24.0622 18.4227 21.7284C20.7565 19.3946 23.9218 18.0835 27.2223 18.0835Z" fill="#61738E"></path>
</g>
<defs>
<clipPath id="clip0_1_3797">
<rect width="35" height="35" fill="white" transform="translate(14 14)"></rect>
</clipPath>
</defs>
</svg>