<svg width="22" height="22" viewBox="0 0 22 22" fill="none" xmlns="http://www.w3.org/2000/svg">
<path d="M17.2727 7.21875C17.1468 8.96629 15.8505 10.3125 14.4368 10.3125C13.0231 10.3125 11.7246 8.96672 11.6009 7.21875C11.4719 5.40074 12.7339 4.125 14.4368 4.125C16.1396 4.125 17.4016 5.43383 17.2727 7.21875Z" stroke="#526878" stroke-width="1.5" stroke-linecap="round" stroke-linejoin="round"></path>
<path d="M14.4373 13.0625C11.6371 13.0625 8.9442 14.4534 8.2696 17.1621C8.18022 17.5205 8.40495 17.875 8.77319 17.875H20.1019C20.4701 17.875 20.6936 17.5205 20.6055 17.1621C19.9309 14.41 17.238 13.0625 14.4373 13.0625Z" stroke="#526878" stroke-width="1.5" stroke-miterlimit="10"></path>
<path d="M8.59306 7.98961C8.49251 9.38523 7.44494 10.4844 6.31572 10.4844C5.1865 10.4844 4.1372 9.38566 4.03837 7.98961C3.93568 6.5377 4.95533 5.5 6.31572 5.5C7.67611 5.5 8.69576 6.56434 8.59306 7.98961Z" stroke="#526878" stroke-width="1.5" stroke-linecap="round" stroke-linejoin="round"></path>
<path d="M8.85198 13.1482C8.0764 12.7929 7.22218 12.6562 6.31683 12.6562C4.08245 12.6562 1.92972 13.767 1.39046 15.9305C1.31956 16.2166 1.49917 16.4998 1.79308 16.4998H6.61761" stroke="#526878" stroke-width="1.5" stroke-miterlimit="10" stroke-linecap="round"></path>
</svg>