<svg width="1200" height="760" viewBox="0 0 1200 760" fill="none" xmlns="http://www.w3.org/2000/svg">
  <defs>
    <filter id="softShadow" x="-20%" y="-20%" width="140%" height="150%" color-interpolation-filters="sRGB">
      <feDropShadow dx="0" dy="18" stdDeviation="24" flood-color="#22304A" flood-opacity=".14"/>
      <feDropShadow dx="0" dy="2" stdDeviation="5" flood-color="#22304A" flood-opacity=".08"/>
    </filter>
    <filter id="orbGlow" x="-80%" y="-80%" width="260%" height="260%" color-interpolation-filters="sRGB">
      <feGaussianBlur stdDeviation="10" result="blur"/>
      <feColorMatrix in="blur" type="matrix" values="0 0 0 0 0.24 0 0 0 0 0.42 0 0 0 0 0.72 0 0 0 .75 0"/>
      <feMerge>
        <feMergeNode/>
        <feMergeNode in="SourceGraphic"/>
      </feMerge>
    </filter>
    <linearGradient id="bg" x1="64" y1="36" x2="1120" y2="710" gradientUnits="userSpaceOnUse">
      <stop stop-color="#F8FAFC"/>
      <stop offset="1" stop-color="#EEF3F8"/>
    </linearGradient>
    <linearGradient id="navy" x1="0" y1="0" x2="1" y2="1">
      <stop stop-color="#3D506D"/>
      <stop offset="1" stop-color="#25314A"/>
    </linearGradient>
    <radialGradient id="orb" cx="0" cy="0" r="1" gradientUnits="userSpaceOnUse" gradientTransform="translate(90 80) rotate(115) scale(112)">
      <stop stop-color="#FFFFFF"/>
      <stop offset=".22" stop-color="#A9DDF7"/>
      <stop offset=".56" stop-color="#5F86C7"/>
      <stop offset="1" stop-color="#3D506D"/>
    </radialGradient>
  </defs>

  <rect width="1200" height="760" rx="34" fill="url(#bg)"/>
  <path d="M154 584C154 410 258 304 401 304H726C838 304 922 238 998 132" stroke="#8EA0B8" stroke-width="2" stroke-dasharray="10 12" opacity=".35"/>
  <path d="M176 162C260 86 379 70 510 96" stroke="#8EA0B8" stroke-width="2" stroke-dasharray="10 12" opacity=".24"/>

  <g transform="translate(84 142) rotate(-7 290 230)" filter="url(#softShadow)">
    <rect x="0" y="0" width="560" height="430" rx="28" fill="white" stroke="#DCE4EF" stroke-width="2"/>
    <rect x="0" y="0" width="560" height="76" rx="28" fill="url(#navy)"/>
    <circle cx="40" cy="38" r="11" fill="#F35C4A"/>
    <circle cx="76" cy="38" r="11" fill="#F5BD3D"/>
    <circle cx="112" cy="38" r="11" fill="#37C96B"/>
    <rect x="36" y="120" width="230" height="18" rx="9" fill="#D7DFEA"/>
    <rect x="36" y="164" width="372" height="14" rx="7" fill="#E8EDF5"/>
    <rect x="36" y="198" width="312" height="14" rx="7" fill="#E8EDF5"/>
    <rect x="36" y="232" width="390" height="14" rx="7" fill="#E8EDF5"/>
    <rect x="36" y="294" width="178" height="40" rx="20" fill="#ECF2F8"/>
  </g>

  <g transform="translate(420 210) rotate(4 278 190)" filter="url(#softShadow)">
    <rect x="0" y="0" width="550" height="365" rx="28" fill="white" stroke="#DCE4EF" stroke-width="2"/>
    <rect x="34" y="34" width="118" height="26" rx="13" fill="#E9EEF6"/>
    <rect x="34" y="98" width="348" height="28" rx="14" fill="#3D506D"/>
    <rect x="392" y="98" width="98" height="28" rx="14" fill="#EAF0F7"/>
    <rect x="58" y="168" width="430" height="74" rx="18" fill="#F6F8FB" stroke="#E0E7F0" stroke-width="2"/>
    <rect x="88" y="192" width="260" height="12" rx="6" fill="#B9C4D4"/>
    <rect x="88" y="216" width="198" height="12" rx="6" fill="#D7DFEA"/>
    <circle cx="58" cy="205" r="20" fill="url(#orb)" filter="url(#orbGlow)"/>
    <rect x="190" y="276" width="284" height="44" rx="22" fill="#F1F5F9"/>
    <circle cx="448" cy="298" r="17" fill="#3D506D"/>
  </g>

  <g filter="url(#softShadow)">
    <rect x="118" y="478" width="224" height="76" rx="22" fill="white" stroke="#DCE4EF" stroke-width="2"/>
    <path d="M162 520h46m-46-19h92m-92 38h70" stroke="#7F8EA6" stroke-width="8" stroke-linecap="round"/>
    <circle cx="286" cy="516" r="22" fill="#EEF4FA"/>
  </g>

  <g filter="url(#softShadow)">
    <rect x="794" y="120" width="246" height="68" rx="22" fill="white" stroke="#DCE4EF" stroke-width="2"/>
    <circle cx="834" cy="154" r="13" fill="url(#orb)"/>
    <path d="M872 142h96M872 166h62" stroke="#7F8EA6" stroke-width="9" stroke-linecap="round"/>
  </g>
</svg>
