<svg width="1200" height="760" viewBox="0 0 1200 760" fill="none" xmlns="http://www.w3.org/2000/svg">
  <defs>
    <filter id="shadow" x="-20%" y="-20%" width="140%" height="150%" color-interpolation-filters="sRGB">
      <feDropShadow dx="0" dy="20" stdDeviation="26" flood-color="#22304A" flood-opacity=".14"/>
      <feDropShadow dx="0" dy="2" stdDeviation="5" flood-color="#22304A" flood-opacity=".07"/>
    </filter>
    <linearGradient id="bg" x1="64" y1="40" x2="1128" y2="724" gradientUnits="userSpaceOnUse">
      <stop stop-color="#F8FAFC"/>
      <stop offset="1" stop-color="#EDF3F8"/>
    </linearGradient>
    <linearGradient id="navy" x1="0" y1="0" x2="1" y2="1">
      <stop stop-color="#3D506D"/>
      <stop offset="1" stop-color="#26324B"/>
    </linearGradient>
  </defs>

  <rect width="1200" height="760" rx="34" fill="url(#bg)"/>
  <path d="M186 560C286 433 421 404 585 444C746 483 836 386 1010 176" stroke="#8EA0B8" stroke-width="2" stroke-dasharray="10 12" opacity=".3"/>

  <g transform="translate(130 110) rotate(-4 270 250)" filter="url(#shadow)">
    <rect width="540" height="500" rx="32" fill="white" stroke="#DCE4EF" stroke-width="2"/>
    <rect x="40" y="46" width="96" height="30" rx="15" fill="#3D506D"/>
    <rect x="40" y="114" width="420" height="62" rx="20" fill="#F2F6FA"/>
    <circle cx="76" cy="145" r="20" fill="url(#navy)"/>
    <path d="M116 134h152M116 158h92" stroke="#7F8EA6" stroke-width="10" stroke-linecap="round"/>
    <rect x="40" y="206" width="420" height="62" rx="20" fill="#F8FAFC" stroke="#E0E7F0" stroke-width="2"/>
    <circle cx="76" cy="237" r="20" fill="#E8EEF6"/>
    <path d="M116 226h172M116 250h74" stroke="#7F8EA6" stroke-width="10" stroke-linecap="round"/>
    <rect x="40" y="298" width="420" height="62" rx="20" fill="#F8FAFC" stroke="#E0E7F0" stroke-width="2"/>
    <circle cx="76" cy="329" r="20" fill="#E8EEF6"/>
    <path d="M116 318h142M116 342h104" stroke="#7F8EA6" stroke-width="10" stroke-linecap="round"/>
    <rect x="40" y="404" width="200" height="46" rx="23" fill="#E9EEF6"/>
  </g>

  <g transform="translate(518 190) rotate(6 255 190)" filter="url(#shadow)">
    <rect width="510" height="380" rx="30" fill="white" stroke="#DCE4EF" stroke-width="2"/>
    <rect x="38" y="44" width="130" height="22" rx="11" fill="#3D506D"/>
    <rect x="38" y="92" width="420" height="108" rx="24" fill="#F8FAFC" stroke="#E0E7F0" stroke-width="2"/>
    <circle cx="92" cy="146" r="32" fill="url(#navy)"/>
    <path d="M148 124h188M148 154h128M380 130l34 34 58-70" stroke="#7F8EA6" stroke-width="12" stroke-linecap="round" stroke-linejoin="round"/>
    <rect x="38" y="230" width="192" height="90" rx="24" fill="#F8FAFC" stroke="#E0E7F0" stroke-width="2"/>
    <rect x="262" y="230" width="196" height="90" rx="24" fill="#F8FAFC" stroke="#E0E7F0" stroke-width="2"/>
    <path d="M70 262h92M70 292h56M294 262h98M294 292h74" stroke="#7F8EA6" stroke-width="11" stroke-linecap="round"/>
  </g>

  <g transform="translate(210 472) rotate(5 160 70)" filter="url(#shadow)">
    <rect width="320" height="140" rx="28" fill="white" stroke="#DCE4EF" stroke-width="2"/>
    <circle cx="66" cy="70" r="32" fill="#E8EEF6"/>
    <path d="M122 52h138M122 84h92" stroke="#3D506D" stroke-width="13" stroke-linecap="round"/>
  </g>

  <g transform="translate(852 86) rotate(-8 100 54)" filter="url(#shadow)">
    <rect width="200" height="108" rx="28" fill="white" stroke="#DCE4EF" stroke-width="2"/>
    <path d="M50 54h100M100 24v60" stroke="#3D506D" stroke-width="16" stroke-linecap="round"/>
  </g>
</svg>
