<svg width="1200" height="760" viewBox="0 0 1200 760" fill="none" xmlns="http://www.w3.org/2000/svg">
  <defs>
    <filter id="shadow" x="-20%" y="-20%" width="140%" height="150%" color-interpolation-filters="sRGB">
      <feDropShadow dx="0" dy="20" stdDeviation="26" flood-color="#22304A" flood-opacity=".14"/>
      <feDropShadow dx="0" dy="2" stdDeviation="5" flood-color="#22304A" flood-opacity=".07"/>
    </filter>
    <linearGradient id="bg" x1="70" y1="50" x2="1110" y2="720" gradientUnits="userSpaceOnUse">
      <stop stop-color="#F8FAFC"/>
      <stop offset="1" stop-color="#EDF3F8"/>
    </linearGradient>
    <linearGradient id="navy" x1="0" y1="0" x2="1" y2="1">
      <stop stop-color="#3D506D"/>
      <stop offset="1" stop-color="#26324B"/>
    </linearGradient>
  </defs>

  <rect width="1200" height="760" rx="34" fill="url(#bg)"/>
  <path d="M218 604C270 430 383 348 558 358C726 367 827 274 982 130" stroke="#8EA0B8" stroke-width="2" stroke-dasharray="10 12" opacity=".3"/>

  <g transform="translate(190 118) rotate(-5 428 276)" filter="url(#shadow)">
    <rect width="856" height="552" rx="30" fill="white" stroke="#DCE4EF" stroke-width="2"/>
    <rect x="46" y="48" width="214" height="26" rx="13" fill="#3D506D"/>
    <rect x="46" y="90" width="290" height="16" rx="8" fill="#B8C3D2"/>
    <rect x="46" y="162" width="186" height="48" rx="24" fill="#E9EEF6"/>
    <rect x="254" y="162" width="176" height="48" rx="24" fill="#F7FAFD" stroke="#DCE4EF" stroke-width="2"/>
    <rect x="602" y="148" width="194" height="64" rx="20" fill="url(#navy)"/>
    <rect x="640" y="172" width="118" height="14" rx="7" fill="#F5F8FC"/>

    <rect x="46" y="270" width="750" height="210" rx="26" fill="#F8FAFC" stroke="#DCE4EF" stroke-width="2"/>
    <path d="M46 336H796" stroke="#E1E8F1" stroke-width="2"/>
    <path d="M46 412H796" stroke="#E1E8F1" stroke-width="2"/>
    <rect x="88" y="294" width="26" height="26" rx="6" fill="#3D506D"/>
    <rect x="154" y="298" width="142" height="14" rx="7" fill="#7F8EA6"/>
    <rect x="566" y="298" width="72" height="14" rx="7" fill="#7F8EA6"/>
    <rect x="88" y="362" width="28" height="28" rx="7" fill="white" stroke="#AEBACC" stroke-width="4"/>
    <rect x="154" y="356" width="48" height="48" rx="14" fill="#E8EEF6"/>
    <rect x="222" y="372" width="180" height="14" rx="7" fill="#3D506D"/>
    <rect x="566" y="372" width="86" height="14" rx="7" fill="#3D506D"/>
    <rect x="88" y="438" width="28" height="28" rx="7" fill="white" stroke="#AEBACC" stroke-width="4"/>
    <rect x="154" y="432" width="48" height="48" rx="14" fill="#E8EEF6"/>
    <rect x="222" y="448" width="232" height="14" rx="7" fill="#3D506D"/>
    <rect x="566" y="448" width="96" height="14" rx="7" fill="#3D506D"/>
  </g>

  <g transform="translate(126 330) rotate(8 142 116)" filter="url(#shadow)">
    <rect width="284" height="232" rx="28" fill="white" stroke="#DCE4EF" stroke-width="2"/>
    <rect x="54" y="46" width="70" height="88" rx="16" fill="#E9EEF6"/>
    <path d="M76 72h26M76 96h34M76 120h22" stroke="#3D506D" stroke-width="8" stroke-linecap="round"/>
    <path d="M154 70h78M154 104h54M54 172h176" stroke="#7F8EA6" stroke-width="12" stroke-linecap="round"/>
  </g>

  <g transform="translate(810 92) rotate(6 90 90)" filter="url(#shadow)">
    <rect width="180" height="180" rx="34" fill="white" stroke="#DCE4EF" stroke-width="2"/>
    <path d="M90 44v92M44 90h92" stroke="#3D506D" stroke-width="18" stroke-linecap="round"/>
  </g>
</svg>
